<svg xmlns="http://www.w3.org/2000/svg" version="1.1" xmlns:xlink="http://www.w3.org/1999/xlink" xmlns:svgjs="http://svgjs.dev/svgjs" width="1000" height="214" viewBox="0 0 1000 214"><g transform="matrix(1,0,0,1,-0.6060606060606801,0.19550541572510838)"><svg viewBox="0 0 396 85" data-background-color="#cf5260" preserveAspectRatio="xMidYMid meet" height="214" width="1000" xmlns="http://www.w3.org/2000/svg" xmlns:xlink="http://www.w3.org/1999/xlink"><g id="tight-bounds" transform="matrix(1,0,0,1,0.24000000000003752,-0.07765402026464585)"><svg viewBox="0 0 395.5199999999999 85.15530745132885" height="85.15530745132885" width="395.5199999999999"><g><svg viewBox="0 0 397.4975999999999 85.58108398858549" height="85.15530745132885" width="395.5199999999999"><g><rect width="397.4975999999999" height="2.6212355701239556" x="0" y="47.03160157186813" fill="#f0f0f0" opacity="1" stroke-width="0" stroke="transparent" fill-opacity="1" class="rect-o-0" data-fill-palette-color="secondary" rx="1%" id="o-0" data-palette-color="#f0f0f0"></rect></g><g transform="matrix(1,0,0,1,0.9887999999999693,56.514710362211865)"><svg viewBox="0 0 395.52 29.066373626373622" height="29.066373626373622" width="395.52"><g id="textblocktransform"><svg viewBox="0 0 395.52 29.066373626373622" height="29.066373626373622" width="395.52" id="textblock"><g><svg viewBox="0 0 395.52 29.066373626373622" height="29.066373626373622" width="395.52"><g transform="matrix(1,0,0,1,0,0)"><svg width="395.52" viewBox="1.4500000476837158 -37.150001525878906 509.55999755859375 37.45000076293945" height="29.066373626373622" data-palette-color="#f0f0f0"><path d="M6.65 0L1.45 0 13.75-36.85 20.15-36.85 32.45 0 27.2 0 23.95-9.65 9.85-9.65 6.65 0ZM16.9-32.45L11.05-14.2 22.7-14.2 16.9-32.45ZM42.6 0L37.55 0 37.55-36.85 52.5-36.85Q54.15-36.85 55.9-36.43 57.65-36 59.12-34.77 60.6-33.55 61.5-31.15 62.4-28.75 62.4-24.8L62.4-24.8Q62.4-20.85 61.47-18.4 60.55-15.95 59.05-14.65 57.55-13.35 55.8-12.9 54.05-12.45 52.45-12.45L52.45-12.45Q51.65-12.45 50.27-12.5 48.9-12.55 47.4-12.65 45.9-12.75 44.6-12.85 43.3-12.95 42.6-13.05L42.6-13.05 42.6 0ZM42.6-32.35L42.6-16.95 51.75-16.95Q53.35-16.95 54.62-17.68 55.9-18.4 56.62-20.08 57.35-21.75 57.35-24.75L57.35-24.75Q57.35-27.7 56.62-29.35 55.9-31 54.7-31.68 53.5-32.35 52.05-32.35L52.05-32.35 42.6-32.35ZM73.05 0L68 0 68-36.85 82.94-36.85Q84.59-36.85 86.34-36.43 88.09-36 89.57-34.77 91.05-33.55 91.94-31.15 92.84-28.75 92.84-24.8L92.84-24.8Q92.84-20.85 91.92-18.4 91-15.95 89.5-14.65 88-13.35 86.25-12.9 84.5-12.45 82.89-12.45L82.89-12.45Q82.09-12.45 80.72-12.5 79.34-12.55 77.84-12.65 76.34-12.75 75.05-12.85 73.75-12.95 73.05-13.05L73.05-13.05 73.05 0ZM73.05-32.35L73.05-16.95 82.19-16.95Q83.8-16.95 85.07-17.68 86.34-18.4 87.07-20.08 87.8-21.75 87.8-24.75L87.8-24.75Q87.8-27.7 87.07-29.35 86.34-31 85.14-31.68 83.94-32.35 82.5-32.35L82.5-32.35 73.05-32.35ZM120.19 0L106.24 0Q103.89 0 102.12-0.73 100.34-1.45 99.39-3.18 98.44-4.9 98.44-7.8L98.44-7.8 98.44-36.85 103.49-36.85 103.49-8.55Q103.49-6.95 104.04-6.08 104.59-5.2 105.49-4.9 106.39-4.6 107.44-4.6L107.44-4.6 120.19-4.6 120.19 0ZM130.14 0L125.09 0 125.09-36.85 130.14-36.85 130.14 0ZM149.64 0.3L149.64 0.3Q146.34 0.3 143.89-0.45 141.44-1.2 139.79-3.18 138.14-5.15 137.34-8.88 136.54-12.6 136.54-18.55L136.54-18.55Q136.54-24.15 137.36-27.8 138.19-31.45 139.86-33.5 141.54-35.55 144.04-36.35 146.54-37.15 149.84-37.15L149.84-37.15Q151.69-37.15 153.66-36.95 155.64-36.75 157.46-36.43 159.29-36.1 160.74-35.7L160.74-35.7 160.74-31.9Q159.84-32.05 158.29-32.23 156.74-32.4 154.79-32.52 152.84-32.65 150.74-32.65L150.74-32.65Q148.24-32.65 146.49-32.08 144.74-31.5 143.64-29.98 142.54-28.45 142.04-25.68 141.54-22.9 141.54-18.5L141.54-18.5Q141.54-14.05 142.01-11.23 142.49-8.4 143.54-6.88 144.59-5.35 146.34-4.78 148.09-4.2 150.69-4.2L150.69-4.2Q154.44-4.2 156.84-4.4 159.24-4.6 160.74-4.8L160.74-4.8 160.74-0.95Q159.24-0.6 157.44-0.3 155.64 0 153.66 0.15 151.69 0.3 149.64 0.3ZM169.54 0L164.34 0 176.64-36.85 183.04-36.85 195.34 0 190.09 0 186.84-9.65 172.74-9.65 169.54 0ZM179.79-32.45L173.94-14.2 185.59-14.2 179.79-32.45ZM211.13 0L206.08 0 206.08-32.35 195.08-32.35 195.08-36.85 222.13-36.85 222.13-32.35 211.13-32.35 211.13 0ZM231.63 0L226.58 0 226.58-36.85 231.63-36.85 231.63 0ZM252.53 0.3L252.53 0.3Q248.93 0.3 246.2-0.4 243.48-1.1 241.65-3 239.83-4.9 238.93-8.6 238.03-12.3 238.03-18.3L238.03-18.3Q238.03-24.3 238.93-28.03 239.83-31.75 241.68-33.73 243.53-35.7 246.23-36.43 248.93-37.15 252.53-37.15L252.53-37.15Q256.23-37.15 258.95-36.43 261.68-35.7 263.48-33.73 265.28-31.75 266.18-28.03 267.08-24.3 267.08-18.3L267.08-18.3Q267.08-12.3 266.18-8.6 265.28-4.9 263.45-3 261.63-1.1 258.9-0.4 256.18 0.3 252.53 0.3ZM252.53-4.2L252.53-4.2Q255.13-4.2 256.95-4.75 258.78-5.3 259.9-6.78 261.03-8.25 261.53-11.03 262.03-13.8 262.03-18.3L262.03-18.3Q262.03-23.05 261.5-25.9 260.98-28.75 259.88-30.2 258.78-31.65 256.95-32.15 255.13-32.65 252.53-32.65L252.53-32.65Q250.08-32.65 248.28-32.15 246.48-31.65 245.33-30.2 244.18-28.75 243.6-25.9 243.03-23.05 243.03-18.3L243.03-18.3Q243.03-13.8 243.5-11.03 243.98-8.25 245.1-6.78 246.23-5.3 248.05-4.75 249.88-4.2 252.53-4.2ZM279.03 0L273.98 0 273.98-36.85 278.08-36.85 296.13-8.6 296.13-36.85 301.13-36.85 301.13 0 297.08 0 279.03-28.25 279.03 0ZM331.82 0.3L331.82 0.3Q330.62 0.3 329.1 0.23 327.57 0.15 326 0 324.42-0.15 323-0.3 321.57-0.45 320.57-0.7L320.57-0.7 320.57-4.6Q321.87-4.5 323.7-4.4 325.52-4.3 327.6-4.25 329.67-4.2 331.62-4.2L331.62-4.2Q333.77-4.2 335.45-4.6 337.12-5 338.1-6.1 339.07-7.2 339.07-9.2L339.07-9.2 339.07-11.35Q339.07-13.6 337.85-14.8 336.62-16 334.12-16L334.12-16 330.37-16Q325.57-16 322.95-18.1 320.32-20.2 320.32-25.3L320.32-25.3 320.32-27.3Q320.32-32.6 323.2-34.88 326.07-37.15 331.37-37.15L331.37-37.15Q333.12-37.15 335.12-36.98 337.12-36.8 339.02-36.55 340.92-36.3 342.17-36.05L342.17-36.05 342.17-32.15Q339.92-32.3 337.15-32.48 334.37-32.65 331.92-32.65L331.92-32.65Q329.82-32.65 328.3-32.18 326.77-31.7 325.95-30.5 325.12-29.3 325.12-27.1L325.12-27.1 325.12-25.6Q325.12-22.9 326.57-21.85 328.02-20.8 330.62-20.8L330.62-20.8 334.67-20.8Q337.82-20.8 339.85-19.65 341.87-18.5 342.87-16.5 343.87-14.5 343.87-11.95L343.87-11.95 343.87-9.35Q343.87-5.45 342.27-3.35 340.67-1.25 337.97-0.48 335.27 0.3 331.82 0.3ZM363.47 0L358.42 0 358.42-32.35 347.42-32.35 347.42-36.85 374.47-36.85 374.47-32.35 363.47-32.35 363.47 0ZM379.42 0L374.22 0 386.52-36.85 392.92-36.85 405.22 0 399.97 0 396.72-9.65 382.62-9.65 379.42 0ZM389.67-32.45L383.82-14.2 395.47-14.2 389.67-32.45ZM421.01 0L415.96 0 415.96-32.35 404.96-32.35 404.96-36.85 432.01-36.85 432.01-32.35 421.01-32.35 421.01 0ZM441.51 0L436.46 0 436.46-36.85 441.51-36.85 441.51 0ZM462.41 0.3L462.41 0.3Q458.81 0.3 456.08-0.4 453.36-1.1 451.53-3 449.71-4.9 448.81-8.6 447.91-12.3 447.91-18.3L447.91-18.3Q447.91-24.3 448.81-28.03 449.71-31.75 451.56-33.73 453.41-35.7 456.11-36.43 458.81-37.15 462.41-37.15L462.41-37.15Q466.11-37.15 468.83-36.43 471.56-35.7 473.36-33.73 475.16-31.75 476.06-28.03 476.96-24.3 476.96-18.3L476.96-18.3Q476.96-12.3 476.06-8.6 475.16-4.9 473.33-3 471.51-1.1 468.78-0.4 466.06 0.3 462.41 0.3ZM462.41-4.2L462.41-4.2Q465.01-4.2 466.83-4.75 468.66-5.3 469.78-6.78 470.91-8.25 471.41-11.03 471.91-13.8 471.91-18.3L471.91-18.3Q471.91-23.05 471.38-25.9 470.86-28.75 469.76-30.2 468.66-31.65 466.83-32.15 465.01-32.65 462.41-32.65L462.41-32.65Q459.96-32.65 458.16-32.15 456.36-31.65 455.21-30.2 454.06-28.75 453.48-25.9 452.91-23.05 452.91-18.3L452.91-18.3Q452.91-13.8 453.38-11.03 453.86-8.25 454.98-6.78 456.11-5.3 457.93-4.75 459.76-4.2 462.41-4.2ZM488.91 0L483.86 0 483.86-36.85 487.96-36.85 506.01-8.6 506.01-36.85 511.01-36.85 511.01 0 506.96 0 488.91-28.25 488.91 0Z" opacity="1" transform="matrix(1,0,0,1,0,0)" fill="#f0f0f0" class="undefined-text-0" data-fill-palette-color="primary" id="text-0"></path></svg></g></svg></g></svg></g></svg></g><g transform="matrix(1,0,0,1,170.6640449509969,0)"><svg viewBox="0 0 56.16951009800614 40.16972835164835" height="40.16972835164835" width="56.16951009800614"><g><svg xmlns:rdf="http://www.w3.org/1999/02/22-rdf-syntax-ns#" xmlns:dc="http://purl.org/dc/elements/1.1/" xmlns:cc="http://creativecommons.org/ns#" xmlns:sodipodi="http://sodipodi.sourceforge.net/DTD/sodipodi-0.dtd" xmlns:inkscape="http://www.inkscape.org/namespaces/inkscape" xmlns:svg="http://www.w3.org/2000/svg" xmlns="http://www.w3.org/2000/svg" xmlns:xlink="http://www.w3.org/1999/xlink" version="1.1" x="8" y="0" viewBox="29.294952392578125 29.2919921875 741.4110107421875 741.4150390625" enable-background="new 0 0 800 800" xml:space="preserve" height="40.16972835164835" width="40.16951009800614" class="icon-icon-0" data-fill-palette-color="accent" id="icon-0"><g fill="#f0f0f0" data-fill-palette-color="accent"><path d="M308.115 487.977c-99.184 0-179.875-80.691-179.875-179.863 0-8.407-6.816-15.223-15.223-15.223-8.406 0-15.222 6.816-15.222 15.223 0 115.971 94.352 210.308 210.319 210.308 8.406 0 15.222-6.808 15.222-15.222C323.337 494.8 316.521 487.977 308.115 487.977z" fill="#f0f0f0" data-fill-palette-color="accent"></path><path d="M756.226 686.344L537.084 467.194c32.354-46.352 49.844-101.358 49.837-159.081 0-153.741-125.08-278.821-278.821-278.821-153.733 0-278.805 125.08-278.805 278.821 0 153.744 125.08 278.809 278.82 278.809 57.723 0 112.719-17.481 159.085-49.829l219.142 219.149c9.329 9.336 21.734 14.465 34.935 14.465h0.008c13.208 0 25.621-5.144 34.935-14.479 9.343-9.321 14.493-21.733 14.486-34.949C770.705 708.077 765.562 695.665 756.226 686.344zM308.115 556.478c-136.958 0-248.375-111.418-248.375-248.364 0-136.958 111.411-248.376 248.36-248.376 136.958 0 248.375 111.418 248.375 248.376 0.008 66.345-25.821 128.711-72.73 175.627C436.837 530.641 374.46 556.478 308.115 556.478zM734.693 734.702c-3.583 3.582-8.348 5.56-13.409 5.56-0.008 0-0.008 0-0.008 0-5.069 0-9.826-1.978-13.408-5.545L491.35 518.184c4.749-4.147 9.417-8.414 13.922-12.918 4.496-4.49 8.763-9.173 12.91-13.915L734.7 707.869c3.583 3.583 5.56 8.354 5.56 13.424C740.26 726.348 738.29 731.104 734.693 734.702z" fill="#f0f0f0" data-fill-palette-color="accent"></path></g></svg></g></svg></g><g><rect width="94.1309249509969" height="2.6212355701239556" y="36.548492781524395" x="226.833555049003" fill="#f0f0f0" data-fill-palette-color="secondary"></rect><rect width="94.1309249509969" height="2.6212355701239556" y="36.548492781524395" x="76.53311999999998" fill="#f0f0f0" data-fill-palette-color="secondary"></rect></g></svg></g><defs></defs></svg><rect width="395.5199999999999" height="85.15530745132885" fill="none" stroke="none" visibility="hidden"></rect></g></svg></g></svg>