<svg xmlns="http://www.w3.org/2000/svg" version="1.1" xmlns:xlink="http://www.w3.org/1999/xlink" xmlns:svgjs="http://svgjs.dev/svgjs" width="1000" height="202" viewBox="0 0 1000 202"><g transform="matrix(1,0,0,1,-0.6060596685140922,0.38378279912518565)"><svg viewBox="0 0 396 80" data-background-color="#ffffff" preserveAspectRatio="xMidYMid meet" height="202" width="1000" xmlns="http://www.w3.org/2000/svg" xmlns:xlink="http://www.w3.org/1999/xlink"><g id="tight-bounds" transform="matrix(1,0,0,1,0.2400003712683656,-0.15199318777234794)"><svg viewBox="0 0 395.52 80.30398637554468" height="80.30398637554468" width="395.52"><g><svg viewBox="0 0 507.94865874147416 103.13082061855668" height="80.30398637554468" width="395.52"><g><rect width="4.2593710025369065" height="103.13082061855668" x="97.01910186842181" y="0" fill="#f98080" opacity="1" stroke-width="0" stroke="transparent" fill-opacity="1" class="rect-o-0" data-fill-palette-color="primary" rx="1%" id="o-0" data-palette-color="#f98080"></rect></g><g transform="matrix(1,0,0,1,112.42865874147418,0.25654432989690434)"><svg viewBox="0 0 395.52 102.61773195876287" height="102.61773195876287" width="395.52"><g id="textblocktransform"><svg viewBox="0 0 395.52 102.61773195876287" height="102.61773195876287" width="395.52" id="textblock"><g><svg viewBox="0 0 395.52 102.61773195876287" height="102.61773195876287" width="395.52"><g transform="matrix(1,0,0,1,0,0)"><svg width="395.52" viewBox="1.5500011444091797 -34.349998474121094 291.0000305175781 72.5" height="102.61773195876287" data-palette-color="#f98080"><svg></svg><svg></svg><g class="undefined-text-0" data-fill-palette-color="primary" id="text-0"><path xmlns="http://www.w3.org/2000/svg" d="M11.65-14.25l-0.55 1.7h10.8l-0.55-1.7c-1.267-3.933-2.3-7.193-3.1-9.78-0.8-2.58-1.283-4.187-1.45-4.82v0l-0.25-0.95c-0.367 1.567-2 6.75-4.9 15.55zM31.45 0h-5.5l-2.65-8.25h-13.6l-2.7 8.25h-5.45l11.65-33.7h6.75zM41.8-29.45v13.25h4.4c2.433 0 4.293-0.6 5.58-1.8 1.28-1.2 1.92-2.783 1.92-4.75v0c0-2.067-0.65-3.7-1.95-4.9-1.3-1.2-3.183-1.8-5.65-1.8v0zM36.65 0v-33.7h9.65c3.867 0 6.933 1.023 9.2 3.07 2.267 2.053 3.4 4.68 3.4 7.88 0 3.2-1.14 5.8-3.42 7.8-2.287 2-5.247 3-8.88 3v0h-4.8v11.95zM69.3-29.45v13.25h4.4c2.433 0 4.293-0.6 5.58-1.8 1.28-1.2 1.92-2.783 1.92-4.75v0c0-2.067-0.65-3.7-1.95-4.9-1.3-1.2-3.183-1.8-5.65-1.8v0zM64.15 0v-33.7h9.65c3.867 0 6.933 1.023 9.2 3.07 2.267 2.053 3.4 4.68 3.4 7.88 0 3.2-1.143 5.8-3.43 7.8-2.28 2-5.237 3-8.87 3v0h-4.8v11.95zM96.8-33.7v29.15h13.8v4.55h-18.95v-33.7zM121.15 0h-5.1v-33.7h5.1zM153.2-32.3v0 5.05c-1.467-0.8-2.793-1.36-3.98-1.68-1.18-0.313-2.687-0.47-4.52-0.47v0c-3.367 0-6.173 1.14-8.42 3.42-2.253 2.287-3.38 5.313-3.38 9.08v0c0 3.833 1.117 6.883 3.35 9.15 2.233 2.267 5.183 3.4 8.85 3.4v0c3.233 0 5.95-0.833 8.15-2.5v0 5.2c-2.067 1.367-4.933 2.05-8.6 2.05v0c-5.033 0-9.15-1.567-12.35-4.7-3.2-3.133-4.8-7.333-4.8-12.6v0c0-5.1 1.607-9.25 4.82-12.45 3.22-3.2 7.297-4.8 12.23-4.8v0c3.6 0 6.483 0.617 8.65 1.85zM167.1-14.25l-0.55 1.7h10.8l-0.55-1.7c-1.267-3.933-2.3-7.193-3.1-9.78-0.8-2.58-1.283-4.187-1.45-4.82v0l-0.25-0.95c-0.367 1.567-2 6.75-4.9 15.55zM186.9 0h-5.5l-2.65-8.25h-13.6l-2.7 8.25h-5.45l11.65-33.7h6.75zM189.55-33.7h22.8v4.3h-8.85v29.4h-5.15v-29.4h-8.8zM222.6 0h-5.1v-33.7h5.1zM228.95-17v0c0-5.233 1.4-9.433 4.2-12.6 2.8-3.167 6.55-4.75 11.25-4.75v0c4.8 0 8.583 1.573 11.35 4.72 2.767 3.153 4.15 7.363 4.15 12.63 0 5.267-1.393 9.483-4.18 12.65-2.78 3.167-6.537 4.75-11.27 4.75v0c-4.7 0-8.46-1.583-11.28-4.75-2.813-3.167-4.22-7.383-4.22-12.65zM237.02-26.18c-1.78 2.253-2.67 5.313-2.67 9.18 0 3.867 0.917 6.933 2.75 9.2 1.833 2.267 4.283 3.4 7.35 3.4v0c3.167 0 5.633-1.117 7.4-3.35 1.767-2.233 2.65-5.317 2.65-9.25v0c0-3.9-0.893-6.967-2.68-9.2-1.78-2.233-4.253-3.35-7.42-3.35v0c-3.133 0-5.593 1.123-7.38 3.37zM271 0h-5.15v-33.7h6.1l8.3 14.1c1.533 2.633 2.927 5.067 4.18 7.3 1.247 2.233 2.103 3.8 2.57 4.7v0l0.7 1.4c-0.2-3.033-0.3-7.483-0.3-13.35v0-14.15h5.15v33.7h-6.1l-8.35-14.05c-1.5-2.533-2.877-4.927-4.13-7.18-1.247-2.247-2.12-3.87-2.62-4.87v0l-0.75-1.45c0.267 3.333 0.4 7.817 0.4 13.45v0z" fill="#f98080" fill-rule="nonzero" stroke="none" stroke-width="1" stroke-linecap="butt" stroke-linejoin="miter" stroke-miterlimit="10" stroke-dasharray="" stroke-dashoffset="0" font-family="none" font-weight="none" font-size="none" text-anchor="none" style="mix-blend-mode: normal" data-fill-palette-color="primary" opacity="1"></path><path xmlns="http://www.w3.org/2000/svg" d="M21.85 5.4v0 5.1c-2.233-1.4-4.767-2.1-7.6-2.1v0c-1.833 0-3.273 0.407-4.32 1.22-1.053 0.82-1.58 1.897-1.58 3.23 0 1.333 0.517 2.4 1.55 3.2 1.033 0.8 2.617 1.667 4.75 2.6v0c1.4 0.6 2.493 1.117 3.28 1.55 0.78 0.433 1.68 1.04 2.7 1.82 1.013 0.787 1.763 1.72 2.25 2.8 0.48 1.087 0.72 2.33 0.72 3.73v0c0 2.967-1.05 5.3-3.15 7-2.1 1.7-4.817 2.55-8.15 2.55v0c-3.7 0-6.767-0.717-9.2-2.15v0-5.35c2.633 1.967 5.683 2.95 9.15 2.95v0c1.833 0 3.283-0.427 4.35-1.28 1.067-0.847 1.6-2.02 1.6-3.52v0c0-0.9-0.317-1.727-0.95-2.48-0.633-0.747-1.317-1.313-2.05-1.7-0.733-0.38-1.833-0.903-3.3-1.57v0c-0.867-0.4-1.473-0.683-1.82-0.85-0.353-0.167-0.93-0.467-1.73-0.9-0.8-0.433-1.39-0.8-1.77-1.1-0.387-0.3-0.863-0.717-1.43-1.25-0.567-0.533-0.973-1.067-1.22-1.6-0.253-0.533-0.487-1.16-0.7-1.88-0.22-0.713-0.33-1.487-0.33-2.32v0c0-2.867 1.043-5.133 3.13-6.8 2.08-1.667 4.77-2.5 8.07-2.5v0c3.033 0 5.617 0.533 7.75 1.6zM27.15 4.05h22.8v4.3h-8.85v29.4h-5.15v-29.4h-8.8zM62.7 23.5l-0.55 1.7h10.8l-0.55-1.7c-1.267-3.933-2.3-7.193-3.1-9.78-0.8-2.58-1.283-4.187-1.45-4.82v0l-0.25-0.95c-0.367 1.567-2 6.75-4.9 15.55zM82.5 37.75h-5.5l-2.65-8.25h-13.6l-2.7 8.25h-5.45l11.65-33.7h6.75zM85.15 4.05h22.8v4.3h-8.85v29.4h-5.15v-29.4h-8.8zM118.2 37.75h-5.1v-33.7h5.1zM124.55 20.75v0c0-5.233 1.4-9.433 4.2-12.6 2.8-3.167 6.55-4.75 11.25-4.75v0c4.8 0 8.583 1.573 11.35 4.72 2.767 3.153 4.15 7.363 4.15 12.63 0 5.267-1.393 9.483-4.18 12.65-2.78 3.167-6.537 4.75-11.27 4.75v0c-4.7 0-8.457-1.583-11.27-4.75-2.82-3.167-4.23-7.383-4.23-12.65zM132.63 11.57c-1.787 2.253-2.68 5.313-2.68 9.18 0 3.867 0.917 6.933 2.75 9.2 1.833 2.267 4.283 3.4 7.35 3.4v0c3.167 0 5.633-1.117 7.4-3.35 1.767-2.233 2.65-5.317 2.65-9.25v0c0-3.9-0.89-6.967-2.67-9.2-1.787-2.233-4.263-3.35-7.43-3.35v0c-3.133 0-5.59 1.123-7.37 3.37zM166.6 37.75h-5.15v-33.7h6.1l8.3 14.1c1.533 2.633 2.927 5.067 4.18 7.3 1.247 2.233 2.103 3.8 2.57 4.7v0l0.7 1.4c-0.2-3.033-0.3-7.483-0.3-13.35v0-14.15h5.15v33.7h-6.1l-8.35-14.05c-1.5-2.533-2.873-4.927-4.12-7.18-1.253-2.247-2.13-3.87-2.63-4.87v0l-0.75-1.45c0.267 3.333 0.4 7.817 0.4 13.45v0z" fill="#f98080" fill-rule="nonzero" stroke="none" stroke-width="1" stroke-linecap="butt" stroke-linejoin="miter" stroke-miterlimit="10" stroke-dasharray="" stroke-dashoffset="0" font-family="none" font-weight="none" font-size="none" text-anchor="none" style="mix-blend-mode: normal" data-fill-palette-color="primary" opacity="1"></path></g></svg></g></svg></g></svg></g></svg></g><g transform="matrix(1,0,0,1,0,0.25654432989690434)"><svg viewBox="0 0 85.86891599790636 102.61773195876287" height="102.61773195876287" width="85.86891599790636"><g><svg xmlns="http://www.w3.org/2000/svg" xmlns:xlink="http://www.w3.org/1999/xlink" version="1.1" x="0" y="0" viewBox="14.700000762939453 10.399999618530273 68.69999694824219 82.0999984741211" enable-background="new 0 0 100 100" xml:space="preserve" height="102.61773195876287" width="85.86891599790636" class="icon-icon-0" data-fill-palette-color="accent" id="icon-0"><g fill="#f98080" data-fill-palette-color="accent"><path d="M82.7 38.9L82.7 38.9l-9.3-9.4V18.9c0-4.7-3.7-8.5-8.3-8.5H23.2c-4.6 0-8.5 3.9-8.5 8.5v56.6c0 4.4 3.7 7.9 8.5 7.9h1.5v1.1c0 4.5 3.7 8 8.4 8H75c4.7 0 8.4-3.5 8.4-8V40.4C83.3 39.8 83.1 39.3 82.7 38.9zM64.6 26.9l4.3 4.3 0 0 0 0 7 7h-7.2c-2.3 0-4.2-1.8-4.2-4L64.6 26.9 64.6 26.9zM24.7 27.9v51.2h-1.5c-2 0-4.2-1.3-4.2-3.6V18.9c0-2.2 2-4.1 4.2-4.1h41.9c2.2 0 3.9 1.8 3.9 4.1v6.2l-4.8-4.8 0 0c-0.4-0.5-1-0.8-1.7-0.8H33C28.4 19.6 24.7 23.3 24.7 27.9zM79 84.6c0 2.1-1.8 3.7-4.1 3.7H33c-2.3 0-4-1.5-4-3.7V27.9c0-2.2 1.8-4 4-4h27.3v10.4c0 4.6 3.8 8.3 8.5 8.3H79V84.6z" fill="#f98080" data-fill-palette-color="accent"></path><path d="M36.4 63h28.2c0.6 0 1.1-0.5 1.1-1.1s-0.5-1.1-1.1-1.1H36.4c-0.6 0-1.1 0.5-1.1 1.1C35.3 62.5 35.8 63 36.4 63z" fill="#f98080" data-fill-palette-color="accent"></path><path d="M72 54.3H36.4c-0.6 0-1.1 0.5-1.1 1.1s0.5 1.1 1.1 1.1H72c0.6 0 1.1-0.5 1.1-1.1S72.6 54.3 72 54.3z" fill="#f98080" data-fill-palette-color="accent"></path><path d="M35.3 48.5c0 0.6 0.5 1.1 1.1 1.1H72c0.6 0 1.1-0.5 1.1-1.1s-0.5-1.1-1.1-1.1H36.4C35.8 47.4 35.3 47.9 35.3 48.5z" fill="#f98080" data-fill-palette-color="accent"></path><path d="M69 78.2H36.4c-0.6 0-1.1 0.5-1.1 1.1s0.5 1.1 1.1 1.1H69c0.6 0 1.1-0.5 1.1-1.1S69.6 78.2 69 78.2z" fill="#f98080" data-fill-palette-color="accent"></path><path d="M72 71.7H36.4c-0.6 0-1.1 0.5-1.1 1.1s0.5 1.1 1.1 1.1H72c0.6 0 1.1-0.5 1.1-1.1S72.6 71.7 72 71.7z" fill="#f98080" data-fill-palette-color="accent"></path><path d="M41.2 41.8c3.3 0 6-2.7 6-6s-2.7-6-6-6-6 2.7-6 6S37.9 41.8 41.2 41.8zM41.2 31.9c2.1 0 3.8 1.7 3.8 3.8 0 2.1-1.7 3.8-3.8 3.8s-3.8-1.7-3.8-3.8C37.3 33.7 39.1 31.9 41.2 31.9z" fill="#f98080" data-fill-palette-color="accent"></path></g></svg></g></svg></g></svg></g><defs></defs></svg><rect width="395.52" height="80.30398637554468" fill="none" stroke="none" visibility="hidden"></rect></g></svg></g></svg>