<svg xmlns="http://www.w3.org/2000/svg" version="1.1" xmlns:xlink="http://www.w3.org/1999/xlink" xmlns:svgjs="http://svgjs.dev/svgjs" width="1000" height="191" viewBox="0 0 1000 191"><g transform="matrix(1,0,0,1,-0.6060606060606233,0.1398232956417047)"><svg viewBox="0 0 396 76" data-background-color="#051726" preserveAspectRatio="xMidYMid meet" height="191" width="1000" xmlns="http://www.w3.org/2000/svg" xmlns:xlink="http://www.w3.org/1999/xlink"><g id="tight-bounds" transform="matrix(1,0,0,1,0.2400000000000091,-0.05563649460088982)"><svg viewBox="0 0 395.52 76.11127298920177" height="76.11127298920177" width="395.52"><g><svg viewBox="0 0 395.52 76.11127298920177" height="76.11127298920177" width="395.52"><g transform="matrix(1,0,0,1,0,39.17335722128023)"><svg viewBox="0 0 395.52 36.93791576792154" height="36.93791576792154" width="395.52"><g id="textblocktransform"><svg viewBox="0 0 395.52 36.93791576792154" height="36.93791576792154" width="395.52" id="textblock"><g><svg viewBox="0 0 395.52 36.93791576792154" height="36.93791576792154" width="395.52"><g transform="matrix(1,0,0,1,0,0)"><svg width="395.52" viewBox="-1.6461900472640991 -20.675519943237305 520.8862915039062 48.64598083496094" height="36.93791576792154" data-palette-color="#f98080"><path d="M18.059-20.567v0l8.7 31.903c0.361 1.291 0.829 2.171 1.404 2.64 0.575 0.469 1.119 0.747 1.633 0.833v0l-0.102 0.975c-0.643-0.134-1.434-0.257-2.374-0.368-0.94-0.118-1.88-0.226-2.822-0.324v0c-1.266-0.132-2.454-0.246-3.564-0.341-1.102-0.101-1.998-0.155-2.688-0.16v0l0.102-0.974c1.665 0.106 2.749-0.069 3.252-0.526 0.51-0.456 0.526-1.547 0.049-3.273v0l-6.546-25.174 0.842-0.555-10.771 21.157c-0.866 1.686-1.334 3.025-1.404 4.016-0.077 0.997 0.221 1.742 0.894 2.235 0.672 0.499 1.689 0.836 3.051 1.012v0l-0.101 0.974c-0.902-0.161-1.849-0.3-2.842-0.416-0.986-0.123-1.903-0.228-2.752-0.317v0c-0.809-0.084-1.5-0.146-2.072-0.186-0.572-0.046-1.103-0.061-1.594-0.045v0l0.101-0.975c0.667-0.098 1.373-0.41 2.119-0.936 0.746-0.532 1.47-1.499 2.172-2.9v0l14.537-28.356c0.126 0.013 0.255 0.027 0.388 0.04 0.133 0.014 0.262 0.027 0.388 0.041zM7.814-0.692l14.034 1.462-0.102 0.975-14.521-1.513zM33.744-17.708l0.09-0.976c0.681 0.097 1.571 0.21 2.671 0.339 1.105 0.136 2.196 0.255 3.271 0.354v0c1.527 0.142 2.992 0.262 4.395 0.359 1.403 0.104 2.397 0.183 2.981 0.237v0c3.936 0.366 6.797 1.533 8.583 3.501 1.785 1.974 2.546 4.375 2.283 7.202v0c-0.109 1.175-0.416 2.385-0.921 3.63-0.511 1.251-1.299 2.377-2.363 3.376-1.064 0.999-2.454 1.764-4.17 2.293-1.723 0.529-3.856 0.676-6.398 0.44v0l-4.68-0.436 0.091-0.976 4.192 0.39c2.31 0.215 4.116-0.059 5.419-0.821 1.304-0.769 2.241-1.847 2.812-3.233 0.572-1.393 0.934-2.919 1.089-4.579v0c0.288-3.093-0.108-5.46-1.188-7.101-1.073-1.64-3.093-2.598-6.06-2.874v0c-1.494-0.139-2.495 0.046-3.004 0.555-0.503 0.509-0.833 1.61-0.99 3.302v0l-2.252 24.205c-0.109 1.175-0.068 2.066 0.123 2.673 0.185 0.606 0.626 1.042 1.324 1.309 0.699 0.259 1.729 0.486 3.091 0.679v0l-0.091 0.976c-0.843-0.145-1.915-0.285-3.215-0.42-1.299-0.141-2.616-0.274-3.95-0.398v0c-1.268-0.118-2.457-0.219-3.568-0.301-1.103-0.089-2-0.132-2.689-0.13v0l0.091-0.976c1.115 0.037 1.963-0.015 2.545-0.155 0.589-0.146 1.008-0.502 1.254-1.068 0.253-0.566 0.435-1.436 0.545-2.611v0l2.252-24.205c0.112-1.201 0.095-2.097-0.052-2.687-0.139-0.589-0.485-1.016-1.035-1.281-0.545-0.258-1.37-0.456-2.476-0.592zM62.05-15.118l0.079-0.977c0.682 0.089 1.573 0.191 2.674 0.307 1.107 0.123 2.199 0.229 3.275 0.316v0c1.528 0.124 2.995 0.226 4.4 0.307 1.404 0.087 2.399 0.154 2.983 0.202v0c3.94 0.32 6.815 1.452 8.624 3.398 1.808 1.953 2.597 4.344 2.368 7.175v0c-0.095 1.176-0.388 2.39-0.878 3.641-0.497 1.257-1.271 2.392-2.322 3.403-1.052 1.012-2.433 1.793-4.143 2.343-1.717 0.55-3.848 0.721-6.393 0.515v0l-4.684-0.38 0.079-0.977 4.196 0.34c2.312 0.188 4.116-0.108 5.409-0.885 1.294-0.785 2.219-1.873 2.774-3.267 0.555-1.4 0.9-2.93 1.034-4.591v0c0.251-3.096-0.173-5.458-1.271-7.086-1.092-1.627-3.123-2.561-6.094-2.802v0c-1.495-0.121-2.494 0.075-2.997 0.59-0.497 0.515-0.814 1.62-0.951 3.314v0l-1.965 24.23c-0.095 1.176-0.044 2.067 0.154 2.671 0.192 0.604 0.638 1.035 1.34 1.293 0.702 0.251 1.735 0.465 3.098 0.642v0l-0.079 0.977c-0.845-0.135-1.918-0.263-3.22-0.381-1.301-0.126-2.619-0.243-3.954-0.351v0c-1.269-0.103-2.459-0.189-3.571-0.26-1.104-0.076-2.001-0.109-2.691-0.098v0l0.079-0.976c1.115 0.024 1.963-0.038 2.544-0.185 0.588-0.153 1.002-0.514 1.241-1.084 0.247-0.569 0.418-1.441 0.513-2.617v0l1.966-24.23c0.098-1.203 0.07-2.098-0.083-2.686-0.146-0.587-0.497-1.01-1.051-1.269-0.548-0.252-1.376-0.439-2.483-0.562zM102.922-12.979v0l-0.068 0.977c-1.113-0.044-1.963 0.018-2.549 0.185-0.58 0.174-0.99 0.54-1.228 1.098-0.232 0.559-0.39 1.44-0.474 2.644v0l-1.677 24.252c-0.081 1.177-0.046 2.065 0.107 2.663 0.159 0.599 0.515 1.008 1.068 1.227 0.56 0.219 1.395 0.367 2.505 0.444v0l3.572 0.247c2.048 0.142 3.625-0.043 4.729-0.555 1.098-0.512 1.929-1.42 2.494-2.725 0.565-1.304 1.038-3.072 1.419-5.305v0l1.128 0.078c-0.163 1.004-0.302 2.338-0.417 4.001v0c-0.043 0.619-0.081 1.508-0.115 2.669-0.033 1.16-0.026 2.364 0.021 3.61v0c-1.658-0.181-3.531-0.351-5.618-0.509-2.087-0.164-3.945-0.303-5.574-0.416v0c-0.978-0.068-2.271-0.157-3.881-0.268-1.616-0.112-3.336-0.221-5.16-0.327-1.83-0.113-3.545-0.192-5.146-0.235v0l0.068-0.978c1.115 0.01 1.962-0.061 2.541-0.215 0.586-0.16 0.995-0.526 1.228-1.098 0.24-0.571 0.401-1.446 0.482-2.623v0l1.677-24.252c0.083-1.204 0.045-2.099-0.115-2.684-0.153-0.585-0.509-1.004-1.066-1.257-0.551-0.245-1.381-0.423-2.489-0.533v0l0.068-0.978c0.683 0.081 1.575 0.172 2.677 0.276 1.108 0.11 2.298 0.209 3.568 0.297v0c1.144 0.079 2.279 0.141 3.405 0.185 1.126 0.051 2.066 0.086 2.82 0.105zM131.482-11.158v0l-0.059 0.978c-1.113-0.033-1.962 0.036-2.547 0.208-0.578 0.179-0.985 0.549-1.219 1.109-0.227 0.561-0.377 1.443-0.449 2.648v0l-1.453 24.267c-0.071 1.178-0.027 2.065 0.132 2.662 0.165 0.598 0.524 1.013 1.077 1.247 0.561 0.227 1.395 0.407 2.502 0.54v0l-0.058 0.979c-0.748-0.112-1.684-0.208-2.808-0.289-1.123-0.087-2.257-0.165-3.402-0.234v0c-1.271-0.076-2.463-0.137-3.576-0.184-1.105-0.053-2.003-0.067-2.692-0.041v0l0.058-0.978c1.115 0 1.962-0.08 2.539-0.239 0.584-0.165 0.99-0.535 1.219-1.109 0.235-0.574 0.387-1.449 0.458-2.627v0l1.453-24.267c0.072-1.205 0.025-2.099-0.14-2.683-0.159-0.584-0.518-0.999-1.078-1.246-0.553-0.24-1.385-0.41-2.494-0.51v0l0.059-0.979c0.683 0.074 1.577 0.158 2.68 0.251 1.109 0.1 2.3 0.188 3.57 0.264v0c1.145 0.069 2.28 0.12 3.407 0.154 1.126 0.041 2.066 0.067 2.821 0.079zM151.128-10.865v0c2.151 0.107 3.902 0.515 5.255 1.224 1.36 0.702 2.555 1.506 3.584 2.412v0c0.628 0.519 1.125 0.6 1.49 0.244 0.359-0.363 0.639-1.24 0.842-2.631v0l1.129 0.056c-0.127 1.202-0.25 2.668-0.37 4.397-0.12 1.73-0.251 4.013-0.392 6.849v0l-1.129-0.056c-0.156-1.416-0.31-2.545-0.461-3.387-0.158-0.842-0.359-1.563-0.603-2.163-0.25-0.6-0.591-1.204-1.021-1.813v0c-0.945-1.389-2.168-2.425-3.67-3.107-1.501-0.682-3.101-1.066-4.798-1.151v0c-1.598-0.08-3.063 0.247-4.395 0.982-1.332 0.734-2.498 1.831-3.498 3.289-1.007 1.452-1.817 3.227-2.429 5.326-0.612 2.099-0.984 4.47-1.116 7.113v0c-0.137 2.737 0.019 5.174 0.466 7.312 0.454 2.132 1.142 3.939 2.062 5.42 0.927 1.488 2.048 2.632 3.363 3.432 1.315 0.807 2.758 1.249 4.329 1.328v0c1.465 0.073 3.011-0.147 4.638-0.66 1.634-0.506 2.94-1.388 3.917-2.648v0c0.766-0.91 1.314-1.913 1.643-3.011 0.335-1.091 0.665-2.627 0.991-4.607v0l1.128 0.057c-0.148 2.97-0.251 5.361-0.308 7.173-0.057 1.813-0.083 3.34-0.079 4.582v0l-1.128-0.056c-0.063-1.412-0.239-2.305-0.527-2.68-0.295-0.375-0.814-0.351-1.556 0.073v0c-1.247 0.785-2.563 1.464-3.946 2.035-1.39 0.571-3.144 0.804-5.262 0.699v0c-3.103-0.155-5.788-0.993-8.054-2.515-2.26-1.521-3.97-3.636-5.13-6.344-1.153-2.708-1.637-5.922-1.451-9.645v0c0.183-3.655 1.012-6.821 2.487-9.497 1.475-2.67 3.416-4.715 5.824-6.138 2.414-1.415 5.138-2.046 8.175-1.894zM182.114-9.147v0l10.867 31.233c0.449 1.263 0.976 2.109 1.581 2.537 0.605 0.428 1.167 0.668 1.686 0.72v0l-0.035 0.979c-0.651-0.09-1.449-0.158-2.394-0.204-0.945-0.053-1.891-0.097-2.837-0.131v0c-1.273-0.045-2.465-0.077-3.579-0.096-1.106-0.026-2.004-0.017-2.693 0.025v0l0.035-0.979c1.668-0.008 2.737-0.257 3.208-0.747 0.478-0.49 0.419-1.58-0.175-3.269v0l-8.256-24.666 0.803-0.612-9.296 21.846c-0.749 1.741-1.124 3.109-1.125 4.103-0.009 1 0.339 1.723 1.044 2.168 0.705 0.452 1.742 0.719 3.114 0.8v0l-0.035 0.98c-0.91-0.099-1.865-0.172-2.864-0.221-0.992-0.055-1.914-0.098-2.767-0.128v0c-0.813-0.029-1.506-0.043-2.08-0.043-0.573-0.007-1.105 0.014-1.593 0.064v0l0.034-0.98c0.659-0.144 1.342-0.503 2.05-1.078 0.708-0.582 1.364-1.596 1.968-3.043v0l12.56-29.285c0.127 0.004 0.257 0.009 0.39 0.013 0.133 0.005 0.263 0.009 0.389 0.014zM173.255 11.384l14.102 0.497-0.035 0.979-14.591-0.514zM223.467-7.737v0c-0.163 1.236-0.283 2.434-0.358 3.593-0.082 1.158-0.13 2.047-0.145 2.667v0c-0.019 0.786-0.02 1.523-0.003 2.211 0.017 0.687 0.035 1.291 0.056 1.812v0l-1.13-0.028c-0.171-2.292-0.437-4.105-0.798-5.441-0.361-1.329-1.024-2.299-1.99-2.909-0.965-0.617-2.474-0.95-4.527-1.001v0l-2.649-0.064-0.678 27.882c-0.032 1.306 0.068 2.292 0.298 2.958 0.224 0.659 0.693 1.111 1.408 1.355 0.714 0.244 1.757 0.416 3.128 0.516v0l-0.024 0.979c-0.845-0.087-1.923-0.153-3.236-0.198-1.306-0.052-2.628-0.094-3.968-0.127v0c-1.466-0.036-2.846-0.059-4.14-0.07-1.287-0.018-2.324-0.003-3.112 0.044v0l0.024-0.98c1.375-0.033 2.424-0.154 3.15-0.363 0.725-0.209 1.216-0.637 1.472-1.285 0.263-0.654 0.41-1.634 0.441-2.94v0l0.678-27.882-2.649-0.064c-2.026-0.049-3.543 0.211-4.55 0.779-1.014 0.562-1.73 1.498-2.149 2.809-0.425 1.317-0.783 3.115-1.072 5.396v0l-1.119-0.028c0.079-0.518 0.134-1.12 0.164-1.806 0.03-0.686 0.055-1.422 0.073-2.209v0c0.015-0.62 0.013-1.51-0.005-2.671-0.018-1.161-0.079-2.363-0.182-3.606v0c1.372 0.067 2.868 0.133 4.486 0.2 1.612 0.073 3.234 0.129 4.868 0.168 1.633 0.04 3.119 0.076 4.458 0.108v0c1.34 0.033 2.819 0.069 4.439 0.108 1.62 0.039 3.246 0.062 4.88 0.069 1.633 0.013 3.12 0.019 4.461 0.018zM239.236-7.508v0l-0.015 0.98c-1.114 0.017-1.959 0.124-2.535 0.323-0.57 0.205-0.959 0.592-1.167 1.162-0.202 0.57-0.312 1.459-0.33 2.666v0l-0.361 24.307c-0.018 1.18 0.066 2.065 0.25 2.654 0.191 0.59 0.569 0.989 1.133 1.197 0.57 0.202 1.412 0.344 2.524 0.428v0l-0.015 0.98c-0.752-0.078-1.692-0.132-2.818-0.162-1.126-0.037-2.263-0.064-3.409-0.081v0c-1.273-0.019-2.467-0.027-3.58-0.023-1.107-0.003-2.004 0.024-2.692 0.08v0l0.015-0.98c1.114-0.05 1.956-0.168 2.526-0.353 0.576-0.191 0.965-0.579 1.167-1.162 0.209-0.584 0.322-1.465 0.339-2.646v0l0.362-24.307c0.018-1.207-0.069-2.098-0.261-2.674-0.185-0.576-0.562-0.975-1.132-1.197-0.564-0.215-1.402-0.348-2.514-0.397v0l0.014-0.98c0.686 0.044 1.582 0.087 2.688 0.13 1.113 0.05 2.306 0.084 3.579 0.103v0c1.147 0.017 2.283 0.017 3.411 0 1.127-0.01 2.067-0.026 2.821-0.048zM258.86-8.109v0c3.1 0.013 5.817 0.728 8.151 2.145 2.327 1.417 4.132 3.441 5.414 6.073 1.275 2.639 1.905 5.835 1.888 9.589v0c-0.016 3.66-0.69 6.86-2.021 9.601-1.339 2.741-3.188 4.873-5.548 6.396-2.36 1.53-5.057 2.288-8.089 2.275v0c-3.107-0.013-5.827-0.728-8.161-2.145-2.327-1.417-4.132-3.451-5.414-6.103-1.275-2.652-1.905-5.842-1.889-9.569v0c0.016-3.66 0.7-6.86 2.052-9.601 1.352-2.734 3.198-4.866 5.537-6.396 2.347-1.523 5.04-2.278 8.08-2.265zM258.656-7.23v0c-2.127-0.009-3.976 0.72-5.549 2.186-1.573 1.46-2.798 3.481-3.676 6.064-0.878 2.576-1.324 5.564-1.339 8.965v0c-0.015 3.46 0.455 6.475 1.411 9.046 0.949 2.571 2.247 4.553 3.894 5.947 1.641 1.394 3.458 2.095 5.451 2.103v0c2.127 0.009 3.976-0.716 5.55-2.176 1.573-1.467 2.798-3.495 3.676-6.084 0.878-2.596 1.324-5.578 1.339-8.944v0c0.015-3.493-0.452-6.519-1.401-9.077-0.956-2.551-2.247-4.523-3.875-5.916-1.627-1.4-3.454-2.105-5.481-2.114zM309.108-7.721v0l0.01 0.98c-1.113 0.045-1.951 0.217-2.514 0.517-0.57 0.299-0.952 0.777-1.145 1.432-0.186 0.655-0.273 1.586-0.261 2.792v0l0.306 29.269c-0.193 0.002-0.38 0.004-0.56 0.006-0.18 0.002-0.37 0.004-0.57 0.006v0l-20.912-31.603 0.271 25.878c0.012 1.18 0.129 2.102 0.349 2.767 0.214 0.671 0.642 1.14 1.285 1.406 0.643 0.273 1.601 0.437 2.875 0.49v0l0.01 0.98c-0.594-0.06-1.364-0.092-2.311-0.096-0.947-0.01-1.844-0.011-2.69-0.001v0c-0.82 0.009-1.646 0.027-2.48 0.055-0.833 0.022-1.526 0.069-2.078 0.142v0l-0.011-0.98c1.113-0.078 1.951-0.26 2.515-0.546 0.57-0.279 0.949-0.757 1.135-1.432 0.193-0.669 0.283-1.593 0.271-2.773v0l-0.249-23.819c-0.013-1.207-0.122-2.096-0.328-2.666-0.199-0.571-0.587-0.961-1.162-1.168-0.569-0.201-1.41-0.312-2.524-0.334v0l-0.01-0.98c0.554 0.028 1.247 0.05 2.081 0.068 0.834 0.025 1.66 0.033 2.48 0.024v0c0.72-0.008 1.406-0.031 2.059-0.071 0.653-0.034 1.239-0.07 1.759-0.109v0l17.578 26.478-0.219-20.979c-0.013-1.207-0.129-2.135-0.349-2.786-0.213-0.651-0.642-1.12-1.285-1.407-0.643-0.287-1.601-0.44-2.875-0.46v0l-0.01-0.98c0.594 0.027 1.371 0.049 2.331 0.066 0.967 0.023 1.857 0.031 2.67 0.022v0c0.853-0.009 1.696-0.034 2.529-0.076 0.833-0.035 1.509-0.072 2.029-0.112zM335.224-8.903v0c1.633-0.045 2.877 0.107 3.734 0.457 0.863 0.349 1.628 0.745 2.294 1.187v0c0.399 0.216 0.721 0.38 0.964 0.493 0.25 0.106 0.488 0.157 0.714 0.15v0c0.526-0.015 0.866-0.744 1.02-2.189v0l1.13-0.031c-0.018 0.554-0.04 1.218-0.065 1.992-0.032 0.768-0.037 1.778-0.016 3.032 0.022 1.26 0.061 2.919 0.118 4.979v0l-1.129 0.031c-0.143-1.563-0.528-3.057-1.155-4.48-0.626-1.423-1.515-2.576-2.667-3.457-1.158-0.882-2.65-1.297-4.476-1.246v0c-1.733 0.048-3.148 0.611-4.245 1.688-1.097 1.078-1.622 2.463-1.575 4.156v0c0.041 1.473 0.452 2.699 1.232 3.677 0.774 0.972 1.802 1.841 3.084 2.605 1.282 0.765 2.668 1.583 4.159 2.456v0c1.728 0.999 3.27 1.997 4.625 2.992 1.348 0.99 2.426 2.093 3.233 3.312 0.801 1.225 1.226 2.717 1.275 4.476v0c0.058 2.093-0.367 3.838-1.275 5.238-0.915 1.399-2.146 2.464-3.693 3.193-1.547 0.73-3.267 1.121-5.159 1.174v0c-1.733 0.048-3.111-0.11-4.135-0.475-1.024-0.365-1.902-0.751-2.633-1.158v0c-0.732-0.433-1.295-0.644-1.688-0.633v0c-0.52 0.014-0.856 0.741-1.01 2.179v0l-1.13 0.031c0.048-0.688 0.065-1.496 0.053-2.422-0.006-0.934-0.023-2.15-0.051-3.65-0.029-1.506-0.074-3.403-0.138-5.688v0l1.129-0.032c0.188 1.956 0.605 3.775 1.252 5.457 0.654 1.683 1.624 3.019 2.913 4.011 1.288 0.998 2.975 1.468 5.061 1.41v0c1.599-0.044 3.048-0.602 4.345-1.671 1.291-1.063 1.905-2.737 1.841-5.023v0c-0.055-1.993-0.801-3.623-2.236-4.89-1.442-1.267-3.326-2.555-5.65-3.865v0c-1.566-0.904-3.032-1.83-4.399-2.779-1.367-0.942-2.468-2.046-3.303-3.309-0.836-1.271-1.279-2.819-1.329-4.645v0c-0.054-1.933 0.335-3.537 1.167-4.814 0.831-1.284 1.942-2.248 3.331-2.894 1.389-0.639 2.884-0.98 4.483-1.025zM377.877-9.932v0c-0.084 1.244-0.125 2.447-0.126 3.607-0.007 1.161 0.002 2.052 0.027 2.672v0c0.032 0.786 0.078 1.521 0.139 2.206 0.061 0.685 0.118 1.286 0.172 1.804v0l-1.129 0.046c-0.318-2.276-0.7-4.069-1.146-5.379-0.446-1.303-1.17-2.228-2.173-2.775-1.003-0.554-2.53-0.789-4.582-0.707v0l-2.648 0.106 1.117 27.868c0.052 1.306 0.215 2.283 0.488 2.933 0.266 0.643 0.763 1.064 1.492 1.261 0.729 0.198 1.78 0.302 3.155 0.314v0l0.039 0.979c-0.849-0.033-1.929-0.029-3.242 0.01-1.306 0.032-2.629 0.075-3.968 0.129v0c-1.465 0.059-2.844 0.124-4.136 0.196-1.285 0.065-2.319 0.146-3.102 0.244v0l-0.04-0.979c1.37-0.122 2.41-0.31 3.12-0.566 0.71-0.255 1.172-0.714 1.386-1.376 0.22-0.669 0.304-1.657 0.252-2.963v0l-1.117-27.867-2.648 0.106c-2.025 0.081-3.522 0.438-4.491 1.071-0.976 0.626-1.63 1.607-1.964 2.941-0.34 1.341-0.581 3.159-0.722 5.453v0l-1.119 0.045c0.046-0.522 0.062-1.127 0.047-1.814-0.014-0.687-0.037-1.423-0.068-2.209v0c-0.025-0.62-0.084-1.508-0.177-2.665-0.093-1.157-0.231-2.353-0.414-3.586v0c1.374-0.022 2.87-0.052 4.49-0.09 1.613-0.031 3.236-0.08 4.868-0.145 1.632-0.065 3.118-0.125 4.457-0.179v0c1.339-0.054 2.818-0.113 4.436-0.177 1.619-0.065 3.243-0.147 4.874-0.246 1.631-0.092 3.115-0.182 4.453-0.268zM392.514-10.968v0l13.561 30.16c0.558 1.219 1.157 2.015 1.798 2.389 0.64 0.374 1.221 0.563 1.742 0.57v0l0.052 0.978c-0.656-0.032-1.457-0.03-2.403 0.006-0.946 0.03-1.892 0.069-2.838 0.119v0c-1.272 0.067-2.463 0.139-3.574 0.218-1.104 0.071-1.998 0.158-2.68 0.261v0l-0.051-0.978c1.661-0.154 2.704-0.496 3.13-1.026 0.433-0.53 0.279-1.61-0.46-3.24v0l-10.386-23.848 0.746-0.68-7.346 22.576c-0.593 1.8-0.847 3.196-0.761 4.186 0.079 0.997 0.489 1.687 1.23 2.068 0.741 0.388 1.799 0.563 3.172 0.524v0l0.051 0.979c-0.916-0.019-1.873-0.008-2.872 0.031-0.993 0.032-1.916 0.071-2.768 0.115v0c-0.812 0.043-1.504 0.089-2.076 0.139-0.572 0.043-1.099 0.111-1.581 0.204v0l-0.051-0.979c0.644-0.201 1.293-0.619 1.946-1.254 0.654-0.642 1.219-1.71 1.695-3.203v0l9.945-30.274c0.126-0.007 0.256-0.013 0.389-0.02 0.133-0.007 0.263-0.014 0.39-0.021zM385.488 10.26l14.091-0.74 0.051 0.978-14.58 0.767zM433.831-13.187v0c-0.054 1.246-0.068 2.449-0.042 3.61 0.02 1.161 0.05 2.051 0.09 2.67v0c0.05 0.785 0.113 1.519 0.19 2.202 0.077 0.683 0.148 1.283 0.214 1.8v0l-1.127 0.072c-0.371-2.268-0.795-4.051-1.272-5.35-0.476-1.292-1.222-2.2-2.237-2.724-1.016-0.53-2.548-0.73-4.597-0.6v0l-2.645 0.168 1.768 27.834c0.083 1.304 0.268 2.278 0.556 2.921 0.281 0.637 0.788 1.046 1.521 1.226 0.733 0.181 1.787 0.261 3.161 0.24v0l0.062 0.978c-0.849-0.013-1.93 0.016-3.241 0.086-1.305 0.063-2.627 0.137-3.964 0.221v0c-1.464 0.093-2.84 0.19-4.129 0.293-1.283 0.095-2.315 0.2-3.096 0.317v0l-0.063-0.978c1.366-0.154 2.402-0.366 3.106-0.639 0.704-0.272 1.155-0.741 1.354-1.408 0.204-0.674 0.265-1.663 0.182-2.968v0l-1.768-27.834-2.645 0.168c-2.023 0.128-3.511 0.52-4.464 1.176-0.961 0.649-1.592 1.644-1.895 2.986-0.308 1.349-0.507 3.172-0.594 5.469v0l-1.118 0.07c0.034-0.523 0.035-1.128 0.005-1.813-0.03-0.686-0.07-1.422-0.12-2.207v0c-0.039-0.619-0.119-1.505-0.239-2.66-0.12-1.155-0.286-2.347-0.498-3.576v0c1.373-0.054 2.868-0.119 4.487-0.195 1.612-0.069 3.233-0.155 4.863-0.259 1.63-0.104 3.114-0.198 4.451-0.282v0c1.337-0.085 2.814-0.179 4.431-0.282 1.617-0.103 3.239-0.222 4.867-0.359 1.628-0.13 3.11-0.254 4.446-0.373zM449.559-14.34v0l0.071 0.977c-1.108 0.114-1.94 0.295-2.497 0.543-0.55 0.254-0.903 0.674-1.061 1.261-0.151 0.586-0.183 1.481-0.095 2.684v0l1.771 24.245c0.086 1.177 0.247 2.051 0.482 2.622 0.242 0.571 0.653 0.935 1.233 1.093 0.586 0.151 1.436 0.219 2.551 0.205v0l0.072 0.978c-0.756-0.012-1.697 0.017-2.821 0.085-1.125 0.062-2.26 0.135-3.404 0.219v0c-1.27 0.093-2.459 0.19-3.568 0.29-1.103 0.094-1.994 0.199-2.674 0.316v0l-0.071-0.978c1.106-0.148 1.934-0.338 2.485-0.572 0.557-0.241 0.911-0.661 1.061-1.261 0.157-0.6 0.192-1.488 0.106-2.665v0l-1.77-24.245c-0.088-1.203-0.252-2.084-0.494-2.641-0.235-0.558-0.646-0.922-1.233-1.093-0.58-0.165-1.427-0.223-2.539-0.176v0l-0.072-0.977c0.687-0.017 1.584-0.052 2.69-0.106 1.113-0.048 2.304-0.118 3.574-0.211v0c1.144-0.084 2.276-0.183 3.397-0.298 1.122-0.109 2.057-0.207 2.806-0.295zM469.055-16.659v0c3.089-0.258 5.858 0.216 8.308 1.422 2.442 1.207 4.418 3.066 5.925 5.576 1.502 2.517 2.409 5.646 2.722 9.386v0c0.305 3.647-0.086 6.894-1.173 9.741-1.093 2.848-2.748 5.134-4.966 6.858-2.217 1.731-4.837 2.723-7.859 2.975v0c-3.096 0.259-5.868-0.215-8.317-1.421-2.442-1.207-4.418-3.076-5.928-5.606-1.503-2.53-2.409-5.652-2.72-9.366v0c-0.305-3.647 0.096-6.895 1.202-9.744 1.107-2.842 2.759-5.128 4.956-6.857 2.204-1.723 4.821-2.711 7.85-2.964zM468.929-15.766v0c-2.119 0.177-3.898 1.065-5.336 2.664-1.439 1.592-2.483 3.713-3.131 6.363-0.649 2.643-0.831 5.659-0.548 9.047v0c0.288 3.448 1.021 6.411 2.198 8.888 1.171 2.478 2.637 4.339 4.401 5.583 1.756 1.245 3.628 1.784 5.614 1.618v0c2.119-0.177 3.898-1.062 5.338-2.654 1.438-1.599 2.481-3.726 3.129-6.383 0.647-2.663 0.83-5.672 0.549-9.027v0c-0.291-3.481-1.021-6.454-2.191-8.919-1.176-2.457-2.635-4.309-4.378-5.554-1.744-1.252-3.625-1.794-5.645-1.626zM519.144-20.676v0l0.096 0.976c-1.105 0.142-1.925 0.387-2.46 0.734-0.542 0.348-0.88 0.857-1.015 1.527-0.128 0.669-0.133 1.604-0.015 2.805v0l2.87 29.129c-0.192 0.019-0.378 0.037-0.558 0.055-0.179 0.018-0.368 0.036-0.567 0.056v0l-23.6-29.649 2.537 25.755c0.116 1.174 0.312 2.083 0.59 2.726 0.272 0.65 0.739 1.079 1.403 1.288 0.664 0.216 1.633 0.295 2.907 0.236v0l0.096 0.976c-0.597-0.008-1.367 0.028-2.31 0.107-0.944 0.073-1.837 0.151-2.68 0.234v0c-0.816 0.08-1.638 0.171-2.465 0.273-0.828 0.095-1.514 0.203-2.059 0.323v0l-0.096-0.975c1.101-0.175 1.92-0.43 2.457-0.765 0.544-0.328 0.879-0.837 1.005-1.526 0.134-0.683 0.143-1.612 0.027-2.786v0l-2.335-23.705c-0.118-1.201-0.305-2.077-0.56-2.628-0.249-0.552-0.669-0.905-1.26-1.061-0.584-0.15-1.432-0.187-2.544-0.112v0l-0.096-0.975c0.554-0.021 1.247-0.059 2.079-0.114 0.833-0.049 1.657-0.113 2.473-0.194v0c0.717-0.071 1.398-0.154 2.045-0.251 0.648-0.091 1.228-0.178 1.743-0.262v0l19.83 24.835-2.056-20.879c-0.118-1.201-0.316-2.116-0.592-2.745-0.27-0.63-0.737-1.059-1.404-1.289-0.666-0.229-1.634-0.298-2.904-0.206v0l-0.096-0.975c0.594-0.025 1.37-0.071 2.328-0.139 0.965-0.062 1.853-0.132 2.662-0.212v0c0.849-0.084 1.687-0.183 2.513-0.298 0.827-0.108 1.497-0.204 2.011-0.289z" opacity="1" transform="matrix(1,0,0,1,0,0)" fill="#f98080" class="undefined-text-0" data-fill-palette-color="primary" id="text-0"></path></svg></g></svg></g></svg></g></svg></g><g transform="matrix(1,0,0,1,178.81747909337355,0)"><svg viewBox="0 0 37.88504181325286 36.93791576792154" height="36.93791576792154" width="37.88504181325286"><g><svg xmlns="http://www.w3.org/2000/svg" xmlns:xlink="http://www.w3.org/1999/xlink" version="1.1" x="0" y="0" viewBox="10 11 80 78" style="enable-background:new 0 0 100 100;" xml:space="preserve" height="36.93791576792154" width="37.88504181325286" class="icon-icon-0" data-fill-palette-color="accent" id="icon-0"><g fill="#f98080" data-fill-palette-color="accent"><path d="M81 11c-5 0-9 4-9 9s4 9 9 9 9-4 9-9S86 11 81 11zM81 27c-3.9 0-7-3.1-7-7s3.1-7 7-7 7 3.1 7 7S84.9 27 81 27z" fill="#f98080" data-fill-palette-color="accent"></path><path d="M81 41c-2.6 0-4.9 1.1-6.6 2.9L57.3 25.3C58.4 23.8 59 22 59 20c0-5-4-9-9-9s-9 4-9 9 4 9 9 9c2.3 0 4.3-0.9 5.9-2.2l17.3 18.7C72.5 46.8 72 48.4 72 50c0 5 4 9 9 9s9-4 9-9S86 41 81 41zM50 27c-3.9 0-7-3.1-7-7s3.1-7 7-7 7 3.1 7 7S53.9 27 50 27zM81 57c-3.9 0-7-3.1-7-7s3.1-7 7-7 7 3.1 7 7S84.9 57 81 57z" fill="#f98080" data-fill-palette-color="accent"></path><path d="M50 59c5 0 9-4 9-9s-4-9-9-9-9 4-9 9S45 59 50 59zM50 43c3.9 0 7 3.1 7 7s-3.1 7-7 7-7-3.1-7-7S46.1 43 50 43z" fill="#f98080" data-fill-palette-color="accent"></path><path d="M19 89c5 0 9-4 9-9s-4-9-9-9-9 4-9 9S14 89 19 89zM19 73c3.9 0 7 3.1 7 7s-3.1 7-7 7-7-3.1-7-7S15.1 73 19 73z" fill="#f98080" data-fill-palette-color="accent"></path><path d="M81 71c-4.6 0-8.4 3.5-8.9 8H58.9c-0.5-4.5-4.3-8-8.9-8-3.2 0-6 1.7-7.6 4.2l-18-18c2.2-1.6 3.6-4.3 3.6-7.2 0-4.6-3.5-8.4-8-8.9V28.9c4.5-0.5 8-4.3 8-8.9 0-5-4-9-9-9s-9 4-9 9c0 4.6 3.5 8.4 8 8.9v12.1c-4.5 0.5-8 4.3-8 8.9 0 5 4 9 9 9 1.3 0 2.5-0.3 3.6-0.7l18.9 18.9C41.2 78 41 79 41 80c0 5 4 9 9 9 4.6 0 8.4-3.5 8.9-8h13.1c0.5 4.5 4.3 8 8.9 8 5 0 9-4 9-9S86 71 81 71zM12 20c0-3.9 3.1-7 7-7s7 3.1 7 7-3.1 7-7 7S12 23.9 12 20zM12 50c0-3.9 3.1-7 7-7s7 3.1 7 7-3.1 7-7 7S12 53.9 12 50zM50 87c-3.9 0-7-3.1-7-7s3.1-7 7-7 7 3.1 7 7S53.9 87 50 87zM81 87c-3.9 0-7-3.1-7-7s3.1-7 7-7 7 3.1 7 7S84.9 87 81 87z" fill="#f98080" data-fill-palette-color="accent"></path></g></svg></g></svg></g><g></g></svg></g><defs></defs></svg><rect width="395.52" height="76.11127298920177" fill="none" stroke="none" visibility="hidden"></rect></g></svg></g></svg>