<svg xmlns="http://www.w3.org/2000/svg" version="1.1" xmlns:xlink="http://www.w3.org/1999/xlink" xmlns:svgjs="http://svgjs.dev/svgjs" width="1000" height="353" viewBox="0 0 1000 353"><g transform="matrix(1,0,0,1,-0.6060606060606233,-0.03913357683029517)"><svg viewBox="0 0 396 140" data-background-color="#ffffff" preserveAspectRatio="xMidYMid meet" height="353" width="1000" xmlns="http://www.w3.org/2000/svg" xmlns:xlink="http://www.w3.org/1999/xlink"><g id="tight-bounds" transform="matrix(1,0,0,1,0.2400000000000091,0.015520398742893349)"><svg viewBox="0 0 395.52 139.96889973268873" height="139.96889973268873" width="395.52"><g><svg viewBox="0 0 647.8245865128303 229.25590259401514" height="139.96889973268873" width="395.52"><g transform="matrix(1,0,0,1,252.30458651283027,61.47249326080351)"><svg viewBox="0 0 395.52 106.31091607240812" height="106.31091607240812" width="395.52"><g id="textblocktransform"><svg viewBox="0 0 395.52 106.31091607240812" height="106.31091607240812" width="395.52" id="textblock"><g><svg viewBox="0 0 395.52 106.31091607240812" height="106.31091607240812" width="395.52"><g transform="matrix(1,0,0,1,0,0)"><svg width="395.52" viewBox="0 -33.25 273.45001220703125 70.5" height="106.31091607240812" data-palette-color="#111111"><svg></svg><svg></svg><g class="undefined-text-0" data-fill-palette-color="primary" id="text-0"><path xmlns="http://www.w3.org/2000/svg" d="M5.4 0h-5.4l7.95-32.75h9.35l7.7 32.75h-5.5l-1.55-6.25h-11.1zM7.9-10.9h8.95l-3.7-17.2h-1.1zM37.4-10.5v0h-4.95v10.5h-5.2v-32.75h10.3c3.8 0 6.577 0.873 8.33 2.62 1.747 1.753 2.62 4.497 2.62 8.23v0c0 7.6-3.7 11.4-11.1 11.4zM36.75-28.15v0h-4.3v12.9h4.3c2.233 0 3.867-0.523 4.9-1.57 1.033-1.053 1.55-2.747 1.55-5.08 0-2.333-0.523-3.96-1.57-4.88-1.053-0.913-2.68-1.37-4.88-1.37zM62.4-10.5v0h-4.95v10.5h-5.2v-32.75h10.3c3.8 0 6.577 0.873 8.33 2.62 1.747 1.753 2.62 4.497 2.62 8.23v0c0 7.6-3.7 11.4-11.1 11.4zM61.75-28.15v0h-4.3v12.9h4.3c2.233 0 3.867-0.523 4.9-1.57 1.033-1.053 1.55-2.747 1.55-5.08 0-2.333-0.523-3.96-1.57-4.88-1.053-0.913-2.68-1.37-4.88-1.37zM83.6-4.7h13.35v4.7h-18.55v-32.75h5.2zM121.25 0h-17.65v-4.65h6.45v-23.45h-6.45v-4.65h17.65v4.65h-6v23.45h6zM147.3-5.35v0l0.9 4.35c-3.4 1-6.257 1.5-8.57 1.5-2.32 0-4.187-0.267-5.6-0.8-1.42-0.533-2.663-1.433-3.73-2.7v0c-2.2-2.567-3.3-7.133-3.3-13.7v0c0-11.033 4.033-16.55 12.1-16.55v0c2.8 0 5.617 0.483 8.45 1.45v0l-1.1 4.25c-2.6-0.7-5.023-1.05-7.27-1.05-2.253 0-3.963 0.867-5.13 2.6-1.167 1.733-1.75 4.877-1.75 9.43 0 4.547 0.473 7.76 1.42 9.64 0.953 1.887 2.723 2.83 5.31 2.83 2.58 0 5.337-0.417 8.27-1.25zM155.4 0h-5.4l7.95-32.75h9.35l7.7 32.75h-5.5l-1.55-6.25h-11.1zM157.9-10.9h8.95l-3.7-17.2h-1.1zM184.85-28.05h-8.45v-4.7h22.1v4.7h-8.45v28.05h-5.2zM221.25 0h-17.65v-4.65h6.45v-23.45h-6.45v-4.65h17.65v4.65h-6v23.45h6zM237.55 0.5c-4.067 0-6.967-1.4-8.7-4.2-1.733-2.8-2.6-7.09-2.6-12.87 0-5.787 0.893-10.013 2.68-12.68 1.78-2.667 4.68-4 8.7-4 4.013 0 6.87 1.317 8.57 3.95 1.7 2.633 2.55 6.907 2.55 12.82 0 5.92-0.85 10.23-2.55 12.93-1.7 2.7-4.583 4.05-8.65 4.05zM237.45-4.2c2.333 0 3.917-0.86 4.75-2.58 0.833-1.713 1.25-4.97 1.25-9.77 0-4.8-0.41-8-1.23-9.6-0.813-1.6-2.343-2.4-4.59-2.4-2.253 0-3.83 0.867-4.73 2.6-0.9 1.733-1.35 4.823-1.35 9.27 0 4.453 0.4 7.647 1.2 9.58 0.8 1.933 2.367 2.9 4.7 2.9zM273.45 0h-4.7v-4.35l-12.35-20.3h-0.15v24.65h-4.7v-32.75h4.7l12.3 20.5h0.2v-20.5h4.7z" fill="#111111" fill-rule="nonzero" stroke="none" stroke-width="1" stroke-linecap="butt" stroke-linejoin="miter" stroke-miterlimit="10" stroke-dasharray="" stroke-dashoffset="0" font-family="none" font-weight="none" font-size="none" text-anchor="none" style="mix-blend-mode: normal" data-fill-palette-color="primary" opacity="1"></path><path xmlns="http://www.w3.org/2000/svg" d="M2.1 12.75v0c0-6.167 3.7-9.25 11.1-9.25v0c2.6 0 5.567 0.583 8.9 1.75v0l-1.15 4.55c-3.4-1.067-6.073-1.61-8.02-1.63-1.953-0.013-3.363 0.313-4.23 0.98-0.867 0.667-1.3 1.833-1.3 3.5v0c0 1.133 0.483 2.09 1.45 2.87 0.967 0.787 2.6 1.48 4.9 2.08v0c3.5 0.933 5.9 2.133 7.2 3.6 1.3 1.467 1.95 3.65 1.95 6.55v0c0 6.3-3.767 9.45-11.3 9.45v0c-2.5 0-5.65-0.533-9.45-1.6v0l1.05-4.75c0 0.033 0.517 0.183 1.55 0.45v0c3.233 0.833 5.743 1.25 7.53 1.25 1.78 0 3.113-0.45 4-1.35 0.88-0.9 1.32-2.033 1.32-3.4 0-1.367-0.373-2.417-1.12-3.15-0.753-0.733-2.13-1.383-4.13-1.95v0c-3.6-1-6.207-2.233-7.82-3.7-1.62-1.467-2.43-3.55-2.43-6.25zM34.85 8.7h-8.45v-4.7h22.1v4.7h-8.45v28.05h-5.2zM55.4 36.75h-5.4l7.95-32.75h9.35l7.7 32.75h-5.5l-1.55-6.25h-11.1zM57.9 25.85h8.95l-3.7-17.2h-1.1zM84.85 8.7h-8.45v-4.7h22.1v4.7h-8.45v28.05h-5.2zM121.25 36.75h-17.65v-4.65h6.45v-23.45h-6.45v-4.65h17.65v4.65h-6v23.45h6zM137.55 37.25c-4.067 0-6.967-1.4-8.7-4.2-1.733-2.8-2.6-7.09-2.6-12.87 0-5.787 0.893-10.013 2.68-12.68 1.78-2.667 4.68-4 8.7-4 4.013 0 6.87 1.317 8.57 3.95 1.7 2.633 2.55 6.907 2.55 12.82 0 5.92-0.85 10.23-2.55 12.93-1.7 2.7-4.583 4.05-8.65 4.05zM137.45 32.55c2.333 0 3.917-0.86 4.75-2.58 0.833-1.713 1.25-4.97 1.25-9.77 0-4.8-0.41-8-1.23-9.6-0.813-1.6-2.343-2.4-4.59-2.4-2.253 0-3.83 0.867-4.73 2.6-0.9 1.733-1.35 4.823-1.35 9.27 0 4.453 0.4 7.647 1.2 9.58 0.8 1.933 2.367 2.9 4.7 2.9zM173.45 36.75h-4.7v-4.35l-12.35-20.3h-0.15v24.65h-4.7v-32.75h4.7l12.3 20.5h0.2v-20.5h4.7z" fill="#111111" fill-rule="nonzero" stroke="none" stroke-width="1" stroke-linecap="butt" stroke-linejoin="miter" stroke-miterlimit="10" stroke-dasharray="" stroke-dashoffset="0" font-family="none" font-weight="none" font-size="none" text-anchor="none" style="mix-blend-mode: normal" data-fill-palette-color="primary" opacity="1"></path></g></svg></g></svg></g></svg></g></svg></g><g><svg viewBox="0 0 229.25590259401514 229.25590259401514" height="229.25590259401514" width="229.25590259401514"><g><svg></svg></g><g id="icon-0"><svg viewBox="0 0 229.25590259401514 229.25590259401514" height="229.25590259401514" width="229.25590259401514"><g><path d="M0 114.628c0-63.307 51.321-114.628 114.628-114.628 63.307 0 114.628 51.321 114.628 114.628 0 63.307-51.321 114.628-114.628 114.628-63.307 0-114.628-51.321-114.628-114.628zM114.628 224.854c60.876 0 110.226-49.35 110.226-110.226 0-60.876-49.35-110.226-110.226-110.226-60.876 0-110.226 49.35-110.226 110.226 0 60.876 49.35 110.226 110.226 110.226z" data-fill-palette-color="accent" fill="#97c6ff" stroke="transparent"></path><ellipse rx="113.48167178403749" ry="113.48167178403749" cx="114.62795129700757" cy="114.62795129700757" fill="#97c6ff" stroke="transparent" stroke-width="0" fill-opacity="1" data-fill-palette-color="accent"></ellipse></g><g transform="matrix(1,0,0,1,46.52681274405438,46.52681274405438)"><svg viewBox="0 0 136.20227710590638 136.20227710590638" height="136.20227710590638" width="136.20227710590638"><g><svg xmlns="http://www.w3.org/2000/svg" xmlns:xlink="http://www.w3.org/1999/xlink" version="1.0" x="0" y="0" viewBox="1 1 48 48" enable-background="new 0 0 50 50" xml:space="preserve" height="136.20227710590638" width="136.20227710590638" class="icon-s-0" data-fill-palette-color="quaternary" id="s-0"><g fill="#003366" data-fill-palette-color="quaternary"><g fill="#003366" data-fill-palette-color="quaternary"><rect x="1" y="1" fill="#003366" width="23" height="5" data-fill-palette-color="quaternary"></rect><rect x="1" y="10" fill="#003366" width="23" height="5" data-fill-palette-color="quaternary"></rect><rect x="1" y="19" fill="#003366" width="23" height="5" data-fill-palette-color="quaternary"></rect></g><g fill="#003366" data-fill-palette-color="quaternary"><rect x="26" y="26" fill="#003366" width="23" height="5" data-fill-palette-color="quaternary"></rect><rect x="26" y="35" fill="#003366" width="23" height="5" data-fill-palette-color="quaternary"></rect><rect x="26" y="44" fill="#003366" width="23" height="5" data-fill-palette-color="quaternary"></rect></g><g fill="#003366" data-fill-palette-color="quaternary"><rect x="19" y="26" fill="#003366" width="5" height="23" data-fill-palette-color="quaternary"></rect><rect x="10" y="26" fill="#003366" width="5" height="23" data-fill-palette-color="quaternary"></rect><rect x="1" y="26" fill="#003366" width="5" height="23" data-fill-palette-color="quaternary"></rect></g><g fill="#003366" data-fill-palette-color="quaternary"><rect x="44" y="1" fill="#003366" width="5" height="23" data-fill-palette-color="quaternary"></rect><rect x="35" y="1" fill="#003366" width="5" height="23" data-fill-palette-color="quaternary"></rect><rect x="26" y="1" fill="#003366" width="5" height="23" data-fill-palette-color="quaternary"></rect></g></g></svg></g></svg></g></svg></g></svg></g></svg></g><defs></defs></svg><rect width="395.52" height="139.96889973268873" fill="none" stroke="none" visibility="hidden"></rect></g></svg></g></svg>