<svg xmlns="http://www.w3.org/2000/svg" version="1.1" xmlns:xlink="http://www.w3.org/1999/xlink" xmlns:svgjs="http://svgjs.dev/svgjs" width="1000" height="1000" viewBox="0 0 1000 1000"><rect width="1000" height="1000" fill="#f9efcc"></rect><g transform="matrix(0.7,0,0,0.7,149.84897959183667,150.19913061224486)"><svg viewBox="0 0 343 343" data-background-color="#f9efcc" preserveAspectRatio="xMidYMid meet" height="999" width="1000" xmlns="http://www.w3.org/2000/svg" xmlns:xlink="http://www.w3.org/1999/xlink"><g id="tight-bounds" transform="matrix(1,0,0,1,0.0740000000000407,0.07400000000001228)"><svg viewBox="0 0 342.85155851775386 342.85155851775386" height="342.85155851775386" width="342.85155851775386"><g><svg></svg></g><g><svg viewBox="0 0 342.85155851775386 342.85155851775386" height="342.85155851775386" width="342.85155851775386"><g><path d="M0 171.426c0-94.676 76.75-171.426 171.426-171.426 94.676 0 171.426 76.75 171.426 171.426 0 94.676-76.75 171.426-171.426 171.426-94.676 0-171.426-76.75-171.426-171.426zM171.426 339.499c92.824 0 168.073-75.249 168.073-168.073 0-92.824-75.249-168.073-168.073-168.073-92.824 0-168.073 75.249-168.073 168.073 0 92.824 75.249 168.073 168.073 168.073z" data-fill-palette-color="tertiary" fill="#536061" stroke="transparent"></path><ellipse rx="164.56874808852186" ry="164.56874808852186" cx="171.42577925887693" cy="171.42577925887693" fill="#536061" stroke="transparent" stroke-width="0" fill-opacity="1" data-fill-palette-color="tertiary"></ellipse></g><g transform="matrix(1,0,0,1,64.84655864529837,122.75875631185461)"><svg viewBox="0 0 213.1584412271571 97.33404589404464" height="97.33404589404464" width="213.1584412271571"><g><svg viewBox="0 0 213.1584412271571 97.33404589404464" height="97.33404589404464" width="213.1584412271571"><g><svg viewBox="0 0 213.1584412271571 97.33404589404464" height="97.33404589404464" width="213.1584412271571"><g transform="matrix(1,0,0,1,0,60.15634521077776)"><svg viewBox="0 0 213.1584412271571 37.177700683266885" height="37.177700683266885" width="213.1584412271571"><g id="textblocktransform"><svg viewBox="0 0 213.1584412271571 37.177700683266885" height="37.177700683266885" width="213.1584412271571" id="textblock"><g><svg viewBox="0 0 213.1584412271571 37.177700683266885" height="37.177700683266885" width="213.1584412271571"><g transform="matrix(1,0,0,1,0,0)"><svg width="213.1584412271571" viewBox="1.5 -39.25 225.8800048828125 39.400001525878906" height="37.177700683266885" data-palette-color="#f9efcc"><path d="M23.55-34.35Q24.35-34.3 24.35-33.5L24.35-33.5Q24.35-33.2 24.18-32.95 24-32.7 23.65-32.75L23.65-32.75Q18.7-33.15 14-33.15L14-33.15Q13.4-23.05 13.2-16.55L13.2-16.55 13.05-11.7Q12.8-5.6 12.7-0.95L12.7-0.95Q12.7 0 11.85 0L11.85 0Q10.95 0 10.95-0.75L10.95-0.75Q10.95-1.85 11.05-3.78 11.15-5.7 11.2-6.95L11.2-6.95Q11.45-11.85 11.6-16.5L11.6-16.5Q11.8-22.75 12.4-33.15L12.4-33.15Q9.3-33.1 7.4-32.98 5.5-32.85 2.2-32.55L2.2-32.55 2.1-32.55Q1.85-32.55 1.68-32.77 1.5-33 1.5-33.35L1.5-33.35Q1.5-34.05 2.1-34.1L2.1-34.1Q7.35-34.7 13.95-34.7L13.95-34.7Q19.35-34.7 23.55-34.35L23.55-34.35ZM49.1-18.55Q49.8-15.7 50-11.58 50.2-7.45 50.2-0.6L50.2-0.6Q50.2 0.1 49.4 0.1L49.4 0.1Q48.65 0.1 48.65-0.65L48.65-0.65Q48.6-7.95 48.4-11.88 48.2-15.8 47.5-18.45L47.5-18.45Q46.75-21.2 45.27-22.58 43.8-23.95 41.25-23.95L41.25-23.95Q38.15-23.95 35.95-22.18 33.75-20.4 32.65-18.03 31.55-15.65 31.55-14.05L31.55-14.05 31.5-0.55Q31.5-0.3 31.22-0.13 30.95 0.05 30.55 0.05L30.55 0.05Q29.85 0.05 29.85-0.6L29.85-0.6Q29.85-11.5 30.1-20.4L30.1-20.4Q30.25-25.6 30.85-35.95L30.85-35.95 31-38.3Q31.05-38.85 31.2-39.05 31.35-39.25 31.75-39.25L31.75-39.25Q32.65-39.25 32.55-38.35L32.55-38.35 31.55-19.15Q32.75-21.65 35.22-23.58 37.7-25.5 41.35-25.5L41.35-25.5Q44.55-25.5 46.4-23.78 48.25-22.05 49.1-18.55L49.1-18.55ZM59.9-29.75Q59-29.75 58.35-30.38 57.7-31 57.7-31.9L57.7-31.9Q57.7-32.85 58.35-33.52 59-34.2 60-34.2L60-34.2Q60.95-34.2 61.55-33.58 62.15-32.95 62.15-31.95L62.15-31.95Q62.15-30.95 61.47-30.35 60.8-29.75 59.9-29.75L59.9-29.75ZM59.1-0.3Q58.3-0.3 58.3-1.05L58.3-1.05 58.8-24.2Q58.8-25.2 59.6-25.2L59.6-25.2Q60-25.2 60.2-24.98 60.4-24.75 60.4-24.2L60.4-24.2 59.85-1.1Q59.85-0.3 59.1-0.3L59.1-0.3ZM78.64 0.1Q75.29 0.1 73.24-1.5 71.19-3.1 69.49-5.85L69.49-5.85Q69.14-6.4 69.14-6.65L69.14-6.65Q69.14-7 69.42-7.25 69.69-7.5 70.09-7.5L70.09-7.5Q70.39-7.5 70.59-7.28 70.79-7.05 71.19-6.3L71.19-6.3Q73.94-1.45 78.69-1.45L78.69-1.45Q81.49-1.45 83.24-2.88 84.99-4.3 84.99-6.35L84.99-6.35Q84.99-7.8 84.07-8.78 83.14-9.75 81.79-10.35 80.44-10.95 78.14-11.75L78.14-11.75Q75.49-12.65 73.84-13.43 72.19-14.2 71.07-15.53 69.94-16.85 69.94-18.9L69.94-18.9Q69.94-20.65 70.79-22.23 71.64-23.8 73.39-24.83 75.14-25.85 77.74-25.85L77.74-25.85Q81.44-25.85 83.82-23.85 86.19-21.85 86.19-18.7L86.19-18.7Q86.19-18.05 86.02-17.82 85.84-17.6 85.44-17.6L85.44-17.6Q84.59-17.6 84.59-18.5L84.59-18.5Q84.59-21.5 82.54-22.9 80.49-24.3 77.69-24.3L77.69-24.3Q74.24-24.3 72.89-22.55 71.54-20.8 71.54-18.95L71.54-18.95Q71.54-17.45 72.49-16.43 73.44-15.4 74.84-14.73 76.24-14.05 78.59-13.25L78.59-13.25Q81.19-12.3 82.77-11.55 84.34-10.8 85.44-9.53 86.54-8.25 86.54-6.4L86.54-6.4Q86.54-4.65 85.59-3.18 84.64-1.7 82.84-0.8 81.04 0.1 78.64 0.1L78.64 0.1ZM116.64-0.2Q115.54-0.2 115.19-1.25L115.19-1.25Q113.74-5.15 110.69-19.65L110.69-19.65Q110.24-21.9 108.64-27.9L108.64-27.9 107.04-34.1Q106.99-34.25 106.99-34.45L106.99-34.45Q106.99-34.7 107.24-34.85 107.49-35 107.84-35L107.84-35Q108.19-35 108.31-34.88 108.44-34.75 108.54-34.3L108.54-34.3 110.54-26.55 112.24-19.95Q112.24-20.05 113.59-14L113.59-14Q114.89-8.1 115.64-5 116.39-1.9 116.74-1.9L116.74-1.9Q116.99-1.9 118.11-4.05 119.24-6.2 120.64-9.55L120.64-9.55 122.14-13.25Q123.54-16.7 124.24-18.1 124.94-19.5 125.44-19.5L125.44-19.5Q126.09-19.5 127.11-17.6 128.14-15.7 130.29-11.15L130.29-11.15 130.89-9.85Q133.14-5.05 133.94-3.45 134.74-1.85 134.94-1.85L134.94-1.85Q135.19-1.85 136.09-6.23 136.99-10.6 137.99-16.15L137.99-16.15 138.74-19.95Q139.39-23.1 141.09-30.25L141.09-30.25 142.09-34.45Q142.19-35 142.74-35L142.74-35Q143.09-35 143.34-34.83 143.59-34.65 143.59-34.35L143.59-34.35Q143.59-34.1 143.54-33.95L143.54-33.95 142.69-30.5Q141.09-24.15 140.24-19.65L140.24-19.65Q138.19-8.75 136.44-1.5L136.44-1.5Q136.14-0.25 134.94-0.25L134.94-0.25Q134.14-0.25 133.16-1.98 132.19-3.7 129.74-9L129.74-9Q128.24-12.2 126.94-14.9 125.64-17.6 125.49-17.6L125.49-17.6Q125.34-17.6 124.89-16.48 124.44-15.35 123.84-13.85L123.84-13.85Q122.44-10.25 121.89-9L121.89-9Q119.74-3.95 118.61-2.08 117.49-0.2 116.64-0.2L116.64-0.2ZM161.64 0Q157.54 0 154.71-1.8 151.89-3.6 150.49-6.5 149.09-9.4 149.09-12.65L149.09-12.65Q149.09-16.05 150.59-19 152.09-21.95 154.94-23.78 157.79-25.6 161.69-25.6L161.69-25.6Q165.04-25.6 167.64-24.23 170.24-22.85 171.69-20.48 173.14-18.1 173.14-15.1L173.14-15.1Q173.14-13.85 172.84-13.45 172.54-13.05 171.44-13.05L171.44-13.05 150.64-12.45Q150.64-9.5 151.96-7 153.29-4.5 155.81-3.03 158.34-1.55 161.69-1.55L161.69-1.55Q164.24-1.55 166.01-2.38 167.79-3.2 168.79-4.25 169.79-5.3 171.04-7.05L171.04-7.05Q171.19-7.25 171.49-7.25L171.49-7.25Q171.84-7.25 172.14-7.03 172.44-6.8 172.44-6.45L172.44-6.45Q172.44-6.2 172.14-5.8L172.14-5.8Q170.49-3.3 168.16-1.65 165.84 0 161.64 0L161.64 0ZM150.64-13.95L171.34-14.6Q171.54-14.6 171.61-14.7 171.69-14.8 171.69-15.2L171.69-15.2Q171.69-17.7 170.41-19.7 169.14-21.7 166.89-22.88 164.64-24.05 161.84-24.05L161.84-24.05Q158.44-24.05 155.89-22.43 153.34-20.8 151.99-18.43 150.64-16.05 150.64-13.95L150.64-13.95ZM190.68 0Q186.58 0 183.76-1.8 180.93-3.6 179.53-6.5 178.13-9.4 178.13-12.65L178.13-12.65Q178.13-16.05 179.63-19 181.13-21.95 183.98-23.78 186.83-25.6 190.73-25.6L190.73-25.6Q194.08-25.6 196.68-24.23 199.28-22.85 200.73-20.48 202.18-18.1 202.18-15.1L202.18-15.1Q202.18-13.85 201.88-13.45 201.58-13.05 200.48-13.05L200.48-13.05 179.68-12.45Q179.68-9.5 181.01-7 182.33-4.5 184.86-3.03 187.38-1.55 190.73-1.55L190.73-1.55Q193.28-1.55 195.06-2.38 196.83-3.2 197.83-4.25 198.83-5.3 200.08-7.05L200.08-7.05Q200.23-7.25 200.53-7.25L200.53-7.25Q200.88-7.25 201.18-7.03 201.48-6.8 201.48-6.45L201.48-6.45Q201.48-6.2 201.18-5.8L201.18-5.8Q199.53-3.3 197.21-1.65 194.88 0 190.68 0L190.68 0ZM179.68-13.95L200.38-14.6Q200.58-14.6 200.66-14.7 200.73-14.8 200.73-15.2L200.73-15.2Q200.73-17.7 199.46-19.7 198.18-21.7 195.93-22.88 193.68-24.05 190.88-24.05L190.88-24.05Q187.48-24.05 184.93-22.43 182.38-20.8 181.03-18.43 179.68-16.05 179.68-13.95L179.68-13.95ZM208.98 0.15Q208.18 0.15 208.18-0.45L208.18-0.45 208.23-38.1Q208.23-39 209.03-39L209.03-39Q209.83-39 209.83-38.1L209.83-38.1 209.73-16.4 225.98-26.4Q226.23-26.55 226.48-26.55L226.48-26.55Q226.73-26.55 227.01-26.13 227.28-25.7 227.23-25.35L227.23-25.35Q227.18-25.1 226.78-24.85L226.78-24.85 209.78-14.5 227.03-1.9Q227.38-1.65 227.38-1.25L227.38-1.25Q227.38-0.85 227.11-0.58 226.83-0.3 226.48-0.3L226.48-0.3Q226.23-0.3 225.48-0.85L225.48-0.85Q215.88-7.9 209.78-12.55L209.78-12.55 209.73-0.5Q209.73 0.15 208.98 0.15L208.98 0.15Z" opacity="1" transform="matrix(1,0,0,1,0,0)" fill="#f9efcc" class="undefined-text-0" data-fill-palette-color="quaternary" id="text-0"></path></svg></g></svg></g></svg></g></svg></g><g transform="matrix(1,0,0,1,80.62993810114668,0)"><svg viewBox="0 0 51.89856502486377 51.379582344274844" height="51.379582344274844" width="51.89856502486377"><g><svg xmlns="http://www.w3.org/2000/svg" xmlns:xlink="http://www.w3.org/1999/xlink" version="1.1" x="0" y="0" viewBox="10 10.199999809265137 80 79.20000457763672" enable-background="new 0 0 100 100" xml:space="preserve" height="51.379582344274844" width="51.89856502486377" class="icon-icon-0" data-fill-palette-color="quaternary" id="icon-0"><g fill="#f9efcc" data-fill-palette-color="quaternary"><polygon points="90,80.5 18.9,80.5 18.9,10.2 16.2,10.2 16.2,20 10,20 10,22.6 16.2,22.6 16.2,46.6 10,46.6 10,49.3 16.2,49.3    16.2,73.3 10,73.3 10,76 16.2,76 16.2,83.2 24.7,83.2 24.7,89.4 27.3,89.4 27.3,83.2 51.3,83.2 51.3,89.4 54,89.4 54,83.2 78,83.2    78,89.4 80.7,89.4 80.7,83.2 90,83.2  " fill="#f9efcc" data-fill-palette-color="quaternary"></polygon><polygon points="41.9,54.1 50.3,63 63.6,37.2 72.5,39.8 86.2,20.2 84,18.6 71.5,36.7 62.2,34 49.7,58.4 41.7,50 23.4,73.8    25.5,75.4  " fill="#f9efcc" data-fill-palette-color="quaternary"></polygon></g></svg></g></svg></g><g></g></svg></g></svg></g></svg></g></svg></g><defs></defs></svg><rect width="342.85155851775386" height="342.85155851775386" fill="none" stroke="none" visibility="hidden"></rect></g></svg></g></svg>